<?xml version="1.0" encoding="utf-8"?>
<!-- Generator: Adobe Illustrator 24.0.0, SVG Export Plug-In . SVG Version: 6.00 Build 0)  -->
<svg version="1.1" id="Capa_1" xmlns="http://www.w3.org/2000/svg" xmlns:xlink="http://www.w3.org/1999/xlink" x="0px" y="0px"
	 viewBox="0 0 500 500" style="enable-background:new 0 0 500 500;" xml:space="preserve">
<style type="text/css">
	.st0{fill-rule:evenodd;clip-rule:evenodd;fill:#414042;}
</style>
<title>Clip 281</title>
<g id="Page-1">
	<g id="Artboard-Copy-3" transform="translate(-412.000000, -154.000000)">
		<g id="Group-301" transform="translate(56.000000, 76.000000)">
			<g id="Group-45" transform="translate(356.000000, 78.000000)">
				<g id="Clip-44">
					<path id="path-1_1_" class="st0" d="M135,10.5c0,31.6,25.9,57.5,57.5,57.5l0,0c23.2,0,42.8,16.7,47,38.7l0,0
						c-63.8,5.3-114,59-114,124.1l0,0V365c0,68.6,55.9,124.5,124.5,124.5l0,0c68.6,0,124.5-55.9,124.5-124.5l0,0V230.8
						c0-65.5-51-119.6-115.5-124.1l0,0c-4.6-32.8-32.6-57.9-66.5-57.9l0,0c-21,0-38.3-17.2-38.3-38.3l0,0H135z M144.6,365V230.8
						c0-58.1,47.3-105.4,105.4-105.4l0,0c58.1,0,105.4,47.3,105.4,105.4l0,0V365c0,58.1-47.3,105.4-105.4,105.4l0,0
						C191.9,470.3,144.6,423,144.6,365L144.6,365z M221.3,211.7V250c0,15.9,12.8,28.8,28.7,28.8l0,0c15.9,0,28.7-12.9,28.7-28.8l0,0
						v-38.3c0-15.9-12.8-28.7-28.7-28.7l0,0C234.1,182.9,221.3,195.8,221.3,211.7L221.3,211.7z M240.4,250v-38.3
						c0-5.3,4.2-9.6,9.6-9.6l0,0c5.4,0,9.6,4.2,9.6,9.6l0,0V250c0,5.4-4.2,9.6-9.6,9.6l0,0C244.6,259.6,240.4,255.4,240.4,250
						L240.4,250z"/>
				</g>
			</g>
		</g>
	</g>
</g>
</svg>
