<?xml version="1.0" encoding="UTF-8"?>
<svg width="13px" height="14px" viewBox="0 0 13 14" version="1.1" xmlns="http://www.w3.org/2000/svg" xmlns:xlink="http://www.w3.org/1999/xlink">
    <title>noun_date_1272092 (1) copy</title>
    <g id="-Home_Jul2020-//alternativa-realista-desarrollo" stroke="none" stroke-width="1" fill="none" fill-rule="evenodd">
        <g id="HOME---CYBER" transform="translate(-1401.000000, -9.000000)" fill="#FFFFFF" fill-rule="nonzero">
            <g id="Group-119" transform="translate(1401.000000, 5.000000)">
                <g id="noun_date_1272092-(1)-copy" transform="translate(6.500000, 11.000000) scale(-1, 1) translate(-6.500000, -11.000000) translate(0.000000, 4.000000)">
                    <path d="M1.73553719,13.4759358 L10.9917355,13.4759358 C11.946281,13.4759358 12.7272727,12.6806347 12.7272727,11.7086 L12.7272727,3.16647672 C12.7272727,2.19444201 11.946281,1.39914088 10.9917355,1.39914088 L9.83471074,1.39914088 L9.83471074,0.589111949 C9.83471074,0.265100377 9.57438017,-4.4408921e-15 9.25619835,-4.4408921e-15 C8.93801653,-4.4408921e-15 8.67768595,0.265100377 8.67768595,0.589111949 L8.67768595,1.39914088 L4.04958678,1.39914088 L4.04958678,0.589111949 C4.04958678,0.265100377 3.7892562,-4.4408921e-15 3.47107438,-4.4408921e-15 C3.15289256,-4.4408921e-15 2.89256198,0.265100377 2.89256198,0.589111949 L2.89256198,1.39914088 L1.73553719,1.39914088 C0.780991736,1.39914088 0,2.19444201 0,3.16647672 L0,11.7086 C0,12.6953625 0.780991736,13.4759358 1.73553719,13.4759358 Z M10.9917355,12.2977119 L1.73553719,12.2977119 C1.41735537,12.2977119 1.15702479,12.0326116 1.15702479,11.7086 L1.15702479,6.8484264 L11.5702479,6.8484264 L11.5702479,11.7086 C11.5702479,12.0473394 11.3099174,12.2977119 10.9917355,12.2977119 Z M1.73553719,2.57736478 L2.89256198,2.57736478 L2.89256198,3.24011572 C2.89256198,3.56412729 3.15289256,3.82922767 3.47107438,3.82922767 C3.7892562,3.82922767 4.04958678,3.56412729 4.04958678,3.24011572 L4.04958678,2.57736478 L8.67768595,2.57736478 L8.67768595,3.24011572 C8.67768595,3.56412729 8.93801653,3.82922767 9.25619835,3.82922767 C9.57438017,3.82922767 9.83471074,3.56412729 9.83471074,3.24011572 L9.83471074,2.57736478 L10.9917355,2.57736478 C11.3099174,2.57736478 11.5702479,2.84246515 11.5702479,3.16647672 L11.5702479,5.67020251 L1.15702479,5.67020251 L1.15702479,3.16647672 C1.15702479,2.84246515 1.41735537,2.57736478 1.73553719,2.57736478 Z" id="Shape"></path>
                </g>
            </g>
        </g>
    </g>
</svg>