<?xml version="1.0" encoding="utf-8"?>
<!-- Generator: Adobe Illustrator 24.0.0, SVG Export Plug-In . SVG Version: 6.00 Build 0)  -->
<svg version="1.1" id="Capa_1" xmlns="http://www.w3.org/2000/svg" xmlns:xlink="http://www.w3.org/1999/xlink" x="0px" y="0px"
	 viewBox="0 0 500 500" style="enable-background:new 0 0 500 500;" xml:space="preserve">
<style type="text/css">
	.st0{fill-rule:evenodd;clip-rule:evenodd;fill:#414042;}
</style>
<title>Clip 342</title>
<g id="Symbols">
	<g id="Group-32" transform="translate(-22.000000, -13.000000)">
		<g id="Clip-342">
			<path id="path-1_1_" class="st0" d="M235.8,49.1c-4.6,2.6-6.1,8.3-3.6,12.8l0,0l28.6,50L62.1,459.3H35.4v18.8h473.2v-18.8h-27.1
				L282.8,111.9l28.5-50c2.7-4.5,0.9-10.3-3.6-12.8l0,0c-1.5-0.8-3.1-1.2-4.6-1.2l0,0c-3.3,0-6.5,1.7-8.2,4.8l0,0l-23.1,40.4
				l-23.1-40.4c-1.8-3-5-4.8-8.3-4.8l0,0C238.9,47.9,237.3,48.3,235.8,49.1L235.8,49.1z M272,130.8l187.8,328.5H374
				c-88.2-65.9-92.6-171.9-92.6-173l0,0c0-0.6-0.2-1.1-0.3-1.7l0,0c-0.2-0.5-0.2-1.1-0.4-1.7l0,0c-0.2-0.6-0.6-1.1-0.9-1.5l0,0
				c-0.4-0.6-0.6-0.9-0.9-1.3l0,0c-0.4-0.4-0.9-0.8-1.5-1.1l0,0c-0.6-0.4-0.9-0.8-1.5-0.9l0,0c-0.6-0.2-1.3-0.4-1.9-0.4l0,0
				c-0.5-0.2-0.9-0.4-1.5-0.4l0,0h-0.2H272h-0.2c-0.8,0-1.3,0.4-2.1,0.4l0,0c-0.4,0.2-0.9,0.2-1.3,0.4l0,0c-0.8,0.4-1.5,0.8-2.1,1.3
				l0,0c-0.4,0.2-0.8,0.4-0.9,0.8l0,0c-0.6,0.4-0.8,1.1-1.1,1.5l0,0c-0.4,0.4-0.8,0.9-0.9,1.3l0,0c-0.2,0.5-0.2,1.1-0.4,1.7l0,0
				c-0.2,0.6-0.4,0.9-0.4,1.5l0,0c0,1.1-4.1,106.9-92.5,173l0,0H84.2L272,130.8z M272,340.4c10.1,34.7,30.5,80.6,72.5,118.9l0,0
				H199.3C241.5,421,261.9,375.4,272,340.4L272,340.4z"/>
		</g>
	</g>
</g>
</svg>
