<?xml version="1.0" encoding="utf-8"?>
<!-- Generator: Adobe Illustrator 24.0.0, SVG Export Plug-In . SVG Version: 6.00 Build 0)  -->
<svg version="1.1" id="Capa_1" xmlns="http://www.w3.org/2000/svg" xmlns:xlink="http://www.w3.org/1999/xlink" x="0px" y="0px"
	 viewBox="0 0 500 500" style="enable-background:new 0 0 500 500;" xml:space="preserve">
<style type="text/css">
	.st0{fill-rule:evenodd;clip-rule:evenodd;fill:#414042;}
</style>
<title>Clip 179</title>
<g id="Symbols">
	<g id="Group-33" transform="translate(-23.000000, -13.000000)">
		<g id="Clip-179">
			<path id="path-1_1_" class="st0" d="M413.7,29c-25.5,1.1-49.8,12.2-68.8,31.1l0,0c-13.8,13.9-18.2,30.2-22.3,46.1l0,0
				c-3.6,13.5-7.3,27.4-17,41.1l0,0C203.2,55,131.8,27.7,93.6,65.7l0,0c-35.4,35.4-9.7,95.8,36,157.3l0,0l-52.7,52.7
				c-24.5,24.4-38,57-38,91.7l0,0c0,34.7,13.5,67.3,38,91.7l0,0c24.4,24.6,56.9,38.1,91.8,38.1l0,0c34.6,0,67.3-13.5,91.8-38.1l0,0
				l52.6-52.7c41.4,30.7,82.2,52.5,115.4,52.5l0,0c15.9,0,30.2-5.1,41.8-16.7l0,0c38.2-38.2,10.5-109.7-81.5-212.2l0,0
				c13.7-9.2,27.5-12.9,41-16.5l0,0c15.9-4.1,32.2-8.5,46.1-22.3l0,0c18.9-18.9,30-43.3,31.1-68.8l0,0c1.1-25.9-7.9-49.9-25.7-67.7
				l0,0c-16.8-16.8-39.3-25.7-63.3-25.7l0,0C416.6,28.9,415.2,28.9,413.7,29L413.7,29z M270.4,266.1c-16.3-16.5-31.5-36.6-44.8-59.6
				l0,0c5.8-3.2,13.3-4.3,22.1-5.8l0,0c17.8-3,39.9-6.5,62.2-28.9l0,0c20.6-20.8,26-42,31.1-60.7l0,0c3.9-14.8,7.3-27.4,17.4-37.7
				l0,0C374,57.8,394,48.7,414.8,47.7l0,0c20.4-0.9,39.6,6.2,53.6,20.2l0,0c14.1,14.1,21.2,33,20.2,53.6l0,0
				c-0.9,20.8-10.1,40.9-25.6,56.5l0,0c-10.3,10.3-23.1,13.7-37.7,17.4l0,0c-18.7,4.9-39.9,10.5-60.7,31.3l0,0
				c-22.3,22.3-25.9,44.4-28.9,62.2l0,0c-1.5,8.8-2.6,16.1-5.8,22l0,0C307,297.6,287.1,282.5,270.4,266.1L270.4,266.1z M229,307.6
				C117.9,196,73.5,112.8,107.3,79.2l0,0c29.1-29.1,95,0.4,186.2,82.3l0,0c-16.8,15.4-33.1,18.2-48.9,20.8l0,0
				c-13.3,2.3-27.1,4.5-37.6,15.2l0,0c-3,3-3.6,7.5-1.5,11.1l0,0c15.2,27.6,32.6,51.4,51.9,70.9l0,0c19.5,19.3,43.3,36.7,70.8,51.9
				l0,0c1.5,0.8,3,1.2,4.5,1.2l0,0c2.5,0,4.9-1,6.6-2.8l0,0c10.7-10.7,12.9-24.4,15.2-37.7l0,0c2.6-15.7,5.5-32,20.8-48.9l0,0
				c81.7,91.1,111.1,157.3,82,186.3l0,0c-7.4,7.3-17.2,11-29.1,11l0,0C385.7,440.4,315.9,394.4,229,307.6L229,307.6z M90.4,446.1
				c-21-21-32.4-48.7-32.4-78.6l0,0c0-29.8,11.6-57.6,32.4-78.6l0,0l50.8-50.8c6,7.7,12.4,15.2,18.7,22.7l0,0l-48.9,49
				c-31.8,31.9-31.8,83.6,0,115.5l0,0c15.9,15.9,36.7,23.8,57.7,23.8l0,0c21,0,41.8-7.9,57.7-23.8l0,0l48.9-48.9
				c7.5,6.6,15.2,12.7,22.6,18.7l0,0l-50.6,51c-21,21-48.7,32.4-78.5,32.4l0,0C139.3,478.5,111.4,466.9,90.4,446.1L90.4,446.1z
				 M124.7,411.8c-24.5-24.6-24.5-64.3,0-88.9l0,0l48-48c13.9,15.9,28.5,31.3,43.1,45.8l0,0c14.6,14.4,30,29,45.7,43.1l0,0l-48,48
				c-12.3,12.3-28.3,18.4-44.4,18.4l0,0C153,430.2,137,424.1,124.7,411.8L124.7,411.8z"/>
		</g>
	</g>
</g>
</svg>
