<?xml version="1.0" encoding="utf-8"?>
<!-- Generator: Adobe Illustrator 24.0.0, SVG Export Plug-In . SVG Version: 6.00 Build 0)  -->
<svg version="1.1" id="Capa_1" xmlns="http://www.w3.org/2000/svg" xmlns:xlink="http://www.w3.org/1999/xlink" x="0px" y="0px"
	 viewBox="0 0 500 500" style="enable-background:new 0 0 500 500;" xml:space="preserve">
<style type="text/css">
	.st0{fill-rule:evenodd;clip-rule:evenodd;fill:#414042;}
</style>
<title>Clip 359</title>
<g id="Symbols">
	<g id="Group-30" transform="translate(-21.000000, -14.000000)">
		<g id="Clip-359">
			<path id="path-1_1_" class="st0" d="M33.4,188c0,28.1,10.3,54,27.4,73.9l0,0c16,25.5,29.6,93.5,29.6,119.8l0,0v39.2
				c0,16.5,9,33.3,26.3,33.3l0,0h41.5c15.6,0,29.3-13.3,30.2-29.7l0,0c2.3-38.6,21.1-126.8,62-137.2l0,0l-0.2-0.8
				c57.6-12.4,114.3-27.5,118.3-28.7l0,0c4.2-1.1,7-4.7,7-9.1l0,0V129.8c0-4.4-2.9-8-6.7-9.1l0,0c-6.7-1.9-164.3-46.8-222-46.8l0,0
				C84.3,73.9,33.4,125,33.4,188L33.4,188z M73.7,247.5c-0.8-1.1-1.5-1.9-2.3-2.9l0,0c-12-15.8-19.2-35.4-19.2-56.7l0,0
				c0-52.5,42.4-95.1,94.5-95.1l0,0c48.5,0,178.4,35.4,209.8,44.1l0,0v104.2c-31.6,8.4-161.1,41.9-209.6,41.9l0,0
				C117.2,283,91,268.9,73.7,247.5L73.7,247.5z M109.2,420.8v-39.2c0-18.2-6.5-59.9-17.3-93.9l0,0c16.4,9.1,35,14.3,55,14.3l0,0
				c15.4,0,38-3.1,63-7.6l0,0C181.5,331.1,171,395,169.2,423.3l0,0c-0.2,5.5-5.1,11.8-11.2,11.8l0,0h-41.5
				C111.6,435.1,109.2,426.5,109.2,420.8L109.2,420.8z M90.4,188c0,31.4,25.5,56.8,56.9,56.8l0,0c31.4,0,56.9-25.5,56.9-56.8l0,0
				c0-31.4-25.5-56.9-56.9-56.9l0,0C115.9,131.1,90.4,156.6,90.4,188L90.4,188z M109.4,188c0-20.9,16.9-37.8,37.8-37.8l0,0
				c20.9,0,37.8,16.9,37.8,37.8l0,0c0,20.9-16.9,37.8-37.8,37.8l0,0C126.4,225.8,109.4,208.9,109.4,188L109.4,188z M398.9,146.9
				c-4.4,2.9-5.7,8.7-2.9,13.1l0,0c2.9,4.5,8.8,5.7,13.1,2.8l0,0c21.7-14.1,27-9.1,36-0.9l0,0c7.6,7,15.6,12.9,27,12.9l0,0
				c8.4,0,18.8-3.3,32.1-12l0,0c4.4-2.8,5.7-8.7,2.9-13.1l0,0c-2.9-4.4-8.7-5.7-13.1-2.9l0,0c-21.5,14.1-27,9.1-36,1l0,0
				c-7.6-7-15.7-12.9-27-12.9l0,0C422.6,134.9,412.3,138.2,398.9,146.9L398.9,146.9z M398.9,203.9c-4.4,2.9-5.7,8.8-2.9,13.1l0,0
				c2.9,4.5,8.8,5.7,13.1,2.9l0,0c21.7-14.1,27-9.1,36-1l0,0c7.6,6.8,15.6,12.9,27,12.9l0,0c8.6,0,18.8-3.3,32.1-12l0,0
				c4.4-2.9,5.7-8.8,2.9-13.1l0,0c-2.9-4.4-8.7-5.7-13.1-2.9l0,0c-21.5,14.1-27,9.1-36,1l0,0c-7.6-7-15.7-12.9-27.1-12.9l0,0
				C422.5,191.9,412.2,195.2,398.9,203.9L398.9,203.9z"/>
		</g>
	</g>
</g>
</svg>
