<?xml version="1.0" encoding="utf-8"?>
<!-- Generator: Adobe Illustrator 24.0.0, SVG Export Plug-In . SVG Version: 6.00 Build 0)  -->
<svg version="1.1" id="Capa_1" xmlns="http://www.w3.org/2000/svg" xmlns:xlink="http://www.w3.org/1999/xlink" x="0px" y="0px"
	 viewBox="0 0 500 500" style="enable-background:new 0 0 500 500;" xml:space="preserve">
<style type="text/css">
	.st0{fill-rule:evenodd;clip-rule:evenodd;fill:#414042;}
</style>
<title>Clip 269</title>
<g id="Symbols">
	<g id="Group-19" transform="translate(-23.000000, -13.000000)">
		<g id="Clip-269">
			<path id="path-1_1_" class="st0" d="M111.4,46.9c-20.9,0-38,16.9-38,37.6l0,0v213.7L35.7,429.3c-0.2,0.8-0.4,1.7-0.4,2.6l0,0
				v23.7c0,13,10.6,23.5,23.8,23.5l0,0H487c13.1,0,23.8-10.5,23.8-23.5l0,0v-23.5c0-0.9-0.2-1.7-0.3-2.6l0,0l-37.7-131.2V84.5
				c0-20.7-17.1-37.6-38-37.6l0,0H111.4z M92.4,84.5c0-10.3,8.6-18.8,19-18.8l0,0h323.3c10.5,0,19,8.5,19,18.8l0,0v206.7H92.4V84.5z
				 M89.7,310h366.5l32.3,112.8H57.2L89.7,310z M54.3,455.6v-14.1h437.4v14.1c0,2.4-2.3,4.7-4.8,4.7l0,0H59.1
				C56.6,460.3,54.3,458.1,54.3,455.6L54.3,455.6z M120.9,84.5c-5.3,0-9.5,4.1-9.5,9.4l0,0V263c0,5.3,4.2,9.4,9.5,9.4l0,0h304.3
				c5.3,0,9.5-4.2,9.5-9.4l0,0V93.9c0-5.3-4.2-9.4-9.5-9.4l0,0H120.9z M130.4,253.6h285.3V103.3H130.4V253.6z M216,347.6
				c-4.4,0-8.4,3-9.3,7.3l0,0l-8.8,37.6c-0.6,2.8,0.2,5.6,1.9,7.9l0,0c1.7,2.3,4.6,3.6,7.4,3.6l0,0h132c2.8,0,5.5-1.3,7.4-3.6l0,0
				c1.7-2.3,2.5-5.1,1.9-7.9l0,0l-8.3-37.6c-1-4.3-4.8-7.3-9.3-7.3l0,0H216z M223.6,366.4h99.7l4.2,18.8H219.2L223.6,366.4z"/>
		</g>
	</g>
</g>
</svg>
