<?xml version="1.0" encoding="utf-8"?>
<!-- Generator: Adobe Illustrator 24.0.0, SVG Export Plug-In . SVG Version: 6.00 Build 0)  -->
<svg version="1.1" id="Capa_1" xmlns="http://www.w3.org/2000/svg" xmlns:xlink="http://www.w3.org/1999/xlink" x="0px" y="0px"
	 viewBox="0 0 500 500" style="enable-background:new 0 0 500 500;" xml:space="preserve">
<style type="text/css">
	.st0{fill-rule:evenodd;clip-rule:evenodd;fill:#414042;}
</style>
<title>Clip 197</title>
<g id="Symbols">
	<g id="Group-29" transform="translate(-21.000000, -12.000000)">
		<g id="Clip-197">
			<path id="path-1_1_" class="st0" d="M215.2,77.9c0,3.5,0.4,7.1,1.3,10.5l0,0c-71.9,10.7-122.7,42-122.7,80.2l0,0v9.3h-19
				c-20.6,0-37.4,16.8-37.4,37.4l0,0c0,20.6,16.8,37.4,37.4,37.4l0,0h19v121.5c0,46.3,37.6,84.1,83.7,84.1l0,0h186.7
				c46.5,0,84.4-37.8,84.4-84.1l0,0V252.7h18.7c20.5,0,37.3-16.8,37.3-37.4l0,0c0-20.6-16.8-37.4-37.3-37.4l0,0h-18.7v-9.3
				c0-38.1-50.8-69.3-122.7-80.2l0,0c0.7-3.4,1.3-6.9,1.3-10.5l0,0c0-27.3-25.2-49.5-56-49.5l0,0C240.4,28.4,215.2,50.6,215.2,77.9
				L215.2,77.9z M233.9,77.9c0-17,16.8-30.8,37.3-30.8l0,0c20.5,0,37.3,13.8,37.3,30.8l0,0c0,2.8-0.6,5.6-1.5,8.2l0,0
				c-11.6-1.1-23.5-1.7-35.9-1.7l0,0c-12.3,0-24.3,0.6-35.9,1.7l0,0C234.4,83.5,233.9,80.9,233.9,77.9L233.9,77.9z M271.2,103.1
				c84.2,0,145.3,27.9,156.7,56.1l0,0H114.5C125.9,131,187,103.1,271.2,103.1L271.2,103.1z M112.5,374.1V177.9h317.5v196.2
				c0,36.1-29.5,65.4-65.7,65.4l0,0H177.4C141.6,439.6,112.5,410.2,112.5,374.1L112.5,374.1z M448.6,196.6h18.7
				c10.3,0,18.7,8.4,18.7,18.7l0,0c0,10.3-8.4,18.7-18.7,18.7l0,0h-18.7V196.6z M56.1,215.3c0-10.3,8.4-18.7,18.7-18.7l0,0h19V234
				h-19C64.4,234,56.1,225.6,56.1,215.3L56.1,215.3z M93.8,495.6h354.8v-18.7H93.8V495.6z"/>
		</g>
	</g>
</g>
</svg>
