<?xml version="1.0" encoding="utf-8"?>
<!-- Generator: Adobe Illustrator 24.0.0, SVG Export Plug-In . SVG Version: 6.00 Build 0)  -->
<svg version="1.1" id="Capa_1" xmlns="http://www.w3.org/2000/svg" xmlns:xlink="http://www.w3.org/1999/xlink" x="0px" y="0px"
	 viewBox="0 0 500 500" style="enable-background:new 0 0 500 500;" xml:space="preserve">
<style type="text/css">
	.st0{fill-rule:evenodd;clip-rule:evenodd;fill:#414042;}
</style>
<title>Clip 177</title>
<g id="Symbols">
	<g id="Group-31" transform="translate(-20.000000, -15.000000)">
		<g id="Clip-177">
			<path id="path-1_1_" class="st0" d="M317.9,102.1v19.1h27c10.7,0,16.1,4.4,18.6,15l0,0l4.8,23.3H183.8v-19.1h38.3v-19.1h-38.3
				h-19.2h-38.3v19.1h38.3v27.4l-20.7,70.1c-5.7-1.1-11.7-1.7-17.6-1.7l0,0c-52.9,0-95.8,42.9-95.8,95.7l0,0
				c0,52.9,42.9,95.7,95.8,95.7l0,0c52.9,0,95.8-42.9,95.8-95.7l0,0H243c4,11.1,14.6,19.1,27,19.1l0,0c15.9,0,28.7-12.8,28.7-28.7
				l0,0c0-7.5-2.9-14.4-7.7-19.5l0,0L374,187.6l11.1,53.6c-38.7,12.3-67.2,48-67.2,91l0,0c0,52.9,42.9,95.7,95.8,95.7l0,0
				c52.9,0,95.8-42.9,95.8-95.7l0,0c0-52.8-42.9-95.9-95.8-95.9l0,0c-3.4,0-6.5,0.6-10,0.9l0,0l-21.7-104.9
				c-4.4-19.3-17.6-30.1-37.2-30.1l0,0H317.9z M185.7,178.7h170.9L273.8,294c-1.4-0.2-2.5-0.4-3.9-0.4l0,0c-2.5,0-4.8,0.4-7.1,1l0,0
				L185.7,178.7z M162.3,243.3l13.2-45.2L247,305.1c-1.7,2.3-3,4.8-4,7.5l0,0h-22.8v0.2C213.7,281.2,191.6,255.3,162.3,243.3
				L162.3,243.3z M433,331.7c0-8.4-5.5-15.3-13.2-18l0,0l-12.1-58c1.9-0.2,4-0.6,5.9-0.6l0,0c42.3,0,76.6,34.3,76.6,76.6l0,0
				c0,42.3-34.3,76.8-76.6,76.8l0,0c-42.3,0-76.6-34.3-76.6-76.6l0,0c0-33.5,21.8-61.9,51.9-72.2l0,0l12.1,58
				c-3.8,3.4-6.3,8.4-6.3,14l0,0c0,10.5,8.6,19.1,19.2,19.1l0,0C424.4,350.9,433,342.3,433,331.7L433,331.7z M49.6,331.9
				c0-42.3,34.3-76.6,76.7-76.6l0,0c4.2,0,8.2,0.6,12.3,1.2l0,0l-16.9,57c-8.2,2.1-14.5,9.4-14.5,18.2l0,0
				c0,10.5,8.6,19.1,19.2,19.1l0,0c10.5,0,19.2-8.6,19.2-19.1l0,0h57.5c0,42.5-34.3,76.8-76.7,76.8l0,0
				C83.9,408.5,49.6,374.2,49.6,331.9L49.6,331.9z M156.9,261.8c21.3,9.4,37.4,28.2,43.3,50.9l0,0H142L156.9,261.8z"/>
		</g>
	</g>
</g>
</svg>
