<?xml version="1.0" encoding="utf-8"?>
<!-- Generator: Adobe Illustrator 24.0.0, SVG Export Plug-In . SVG Version: 6.00 Build 0)  -->
<svg version="1.1" id="Capa_1" xmlns="http://www.w3.org/2000/svg" xmlns:xlink="http://www.w3.org/1999/xlink" x="0px" y="0px"
	 viewBox="0 0 500 500" style="enable-background:new 0 0 500 500;" xml:space="preserve">
<style type="text/css">
	.st0{fill-rule:evenodd;clip-rule:evenodd;fill:#414042;}
</style>
<title>Clip 77</title>
<g id="Symbols">
	<g id="Group-24" transform="translate(-22.000000, -11.000000)">
		<g id="Clip-77">
			<path id="path-1_1_" class="st0" d="M98.5,53.4c-3.8,1.3-6.3,4.9-6.3,8.9l0,0v136.8c-0.4,0.5-0.8,0.9-1.1,1.5l0,0L36.2,323.7
				c-0.9,2.1-0.8,7.6-0.8,8.1l0,0v156.3c0,5.3,4.2,9.5,9.5,9.5l0,0h56.8c5.3,0,9.5-4.2,9.5-9.5l0,0v-28.4h321.8v28.4
				c0,5.3,4.2,9.5,9.5,9.5l0,0h56.8c5.3,0,9.5-4.2,9.5-9.5l0,0V331.9c0-0.5,0-6.3-0.9-8.3l0,0l-56-118.2c0-0.4,0.2-0.8,0.2-1.3l0,0
				V62.3c0-4-2.7-7.8-6.4-8.9l0,0c-40.9-13.6-107.3-28.6-171.1-29l0,0C209.2,24.6,139.2,38.6,98.5,53.4L98.5,53.4z M111.1,69.3
				c32-10.6,96.3-26.2,163.2-25.8l0,0c58.3,0.4,118.9,13.2,158.6,25.8l0,0v125.4h-24.2c3.2-5.7,5.3-11.9,5.3-18.9l0,0v-18.9
				c0-20.8-17-37.9-37.9-37.9l0,0h-56.8c-20.8,0-37.8,17-37.8,37.9l0,0v18.9h-18.9v-18.9c0-20.8-17-37.9-37.9-37.9l0,0h-56.8
				c-20.8,0-37.8,17-37.8,37.9l0,0v18.9c0,7,2.1,13.3,5.3,18.9l0,0h-24.2V69.3z M300.4,175.8v-18.9c0-10.4,8.5-18.9,18.9-18.9l0,0
				h56.8c10.4,0,18.9,8.5,18.9,18.9l0,0v18.9c0,10.4-8.5,18.9-18.9,18.9l0,0H333C326.3,183.5,314.2,175.8,300.4,175.8L300.4,175.8z
				 M149,175.8v-18.9c0-10.4,8.5-18.9,18.9-18.9l0,0h56.8c10.4,0,18.9,8.5,18.9,18.9l0,0v18.9c-14,0-26,7.6-32.6,18.9l0,0h-43.2
				C157.5,194.7,149,186.2,149,175.8L149,175.8z M224.7,213.6c0-10.6,8.5-18.9,18.9-18.9l0,0h7.8h0.6h39.9h0.6h8
				c10.4,0,18.9,8.5,18.9,19.1l0,0c0,10.4-8.5,18.9-18.9,18.9l0,0h-56.8C233.2,232.8,224.7,224.2,224.7,213.6L224.7,213.6z
				 M300.4,251.5c20.8,0,37.8-16.9,37.8-37.9l0,0h37.9h58.5l45.1,94.7H63.8l42.2-94.7h61.9h37.9c0,20.8,17,37.9,37.9,37.9l0,0H300.4
				z M54.3,379.4v-14.2V332c0-2.6,2.1-4.7,4.8-4.7l0,0h425.9c2.6,0,4.7,2.1,4.7,4.7l0,0v33.2v14.2c0,2.6-2.1,4.7-4.7,4.7l0,0H59.1
				C56.4,384.1,54.3,382,54.3,379.4L54.3,379.4z M484.9,403.1c1.7,0,3.2-0.6,4.7-0.9l0,0v76.7h-37.8v-28.4c0-5.3-4.2-9.5-9.5-9.5
				l0,0H101.7c-5.3,0-9.5,4.1-9.5,9.5l0,0v28.4H54.3v-76.7c1.5,0.4,3,0.9,4.8,0.9l0,0H484.9z"/>
		</g>
	</g>
</g>
</svg>
