<?xml version="1.0" encoding="UTF-8"?>
<svg width="200px" height="200px" viewBox="0 0 200 200" version="1.1" xmlns="http://www.w3.org/2000/svg" xmlns:xlink="http://www.w3.org/1999/xlink">
    <!-- Generator: Sketch 55.2 (78181) - https://sketchapp.com -->
    <title>Facebook</title>
    <desc>Created with Sketch.</desc>
    <g id="Facebook" stroke="none" stroke-width="1" fill="none" fill-rule="evenodd">
        <g transform="translate(54.458716, 8.000000)" fill="#FFFFFF" fill-rule="nonzero" id="Path">
            <path d="M74.9765188,30.5288073 C68.5913576,30.5288073 64.4303818,32.0143119 62.5019215,34.9768807 C60.5734613,37.9436697 59.6071486,41.7840367 59.6071486,46.5022018 L59.6071486,67.3288073 L90.3417238,67.3288073 L86.3515188,100.085872 L59.6113137,100.085872 L59.6113137,184 L27.4814162,184 L27.4814162,100.090092 L0.541284404,100.090092 L0.541284404,67.3330275 L27.4814162,67.3330275 L27.4814162,43.2695413 C27.4814162,29.2500917 31.1717311,18.5350459 38.5565261,11.1201835 C45.941321,3.70954128 55.5503012,0 67.391797,0 C67.5209164,0 67.6583661,0 67.7916506,0 C67.9207699,0 68.0582196,0 68.1915041,0 C72.3149937,0 76.3385198,0.101284404 80.2662478,0.303853211 C84.1898106,0.506422018 87.9509329,0.810275229 91.5412844,1.21541284 L91.5412844,30.5330275 L74.9765188,30.5330275 L74.9765188,30.5288073 Z"></path>
        </g>
    </g>
</svg>