<?xml version="1.0" encoding="utf-8"?>
<!-- Generator: Adobe Illustrator 24.0.0, SVG Export Plug-In . SVG Version: 6.00 Build 0)  -->
<svg version="1.1" id="Capa_1" xmlns="http://www.w3.org/2000/svg" xmlns:xlink="http://www.w3.org/1999/xlink" x="0px" y="0px"
	 viewBox="0 0 500 500" style="enable-background:new 0 0 500 500;" xml:space="preserve">
<style type="text/css">
	.st0{fill-rule:evenodd;clip-rule:evenodd;fill:#414042;}
</style>
<title>Clip 215</title>
<g id="Symbols">
	<g id="Group-34" transform="translate(-23.000000, -13.000000)">
		<g id="Clip-215">
			<path id="path-1_1_" class="st0" d="M79.2,35.6L45.7,69.1c-2.9,2.9-3.5,7.4-1.5,11l0,0L86,152.8c1.1,1.8,2.8,3.3,4.8,4l0,0
				l54,19.5l69.3,69.5L58.4,401.7c-20.7,21-20.6,54.8,0,75.6l0,0c10.5,10.3,24.1,15.5,37.7,15.5l0,0c13.6,0,27.4-5.2,37.9-15.6l0,0
				l145.4-150h2.6v22.6c0,2.4,0.9,4.8,2.6,6.4l0,0l114,118.9c11.9,12.1,27,18,42.2,18l0,0c15.6,0,31.3-6.3,43.8-18.8l0,0
				c12.1-12.1,18.7-27.6,18.7-43.6l0,0c0-15.8-6.4-30.7-17.8-42.1l0,0l-0.2-0.2L366.4,274.7c-1.8-1.7-4-2.6-6.4-2.6l0,0h-22.8v-2
				l39.7-38.3c8.1,2,16.4,3.5,24.8,3.5l0,0c3,0,6.1-0.2,9-0.4l0,0c48.9-4.2,88.2-44.3,91.7-93.3l0,0c1.3-16.5-1.7-33.1-8.1-47.9l0,0
				c-1.3-2.7-3.9-4.8-6.8-5.3l0,0c-3.1-0.6-6.1,0.4-8.3,2.6l0,0l-51.7,51.7c-1.1,1.1-3.7,1.1-4.8,0l0,0l-27.6-27.6
				c-1.1-1.1-1.1-3.7,0-4.8l0,0l52.6-52.6c2.2-2.2,3.1-5.2,2.6-8.1l0,0c-0.6-2.9-2.4-5.5-5.2-6.8l0,0c-14.9-7.2-30.7-10.5-47.4-9.9
				l0,0c-50.2,1.5-92.1,40.3-97.2,90.1l0,0c-1.1,11.6-0.4,23,2.2,34.1l0,0l-47.2,47.1l-69.3-69.3l-19.5-54.3c-0.8-2-2.2-3.7-4.1-4.8
				l0,0L90.2,34.1c-1.4-0.8-3-1.2-4.5-1.2l0,0C83.3,32.9,80.9,33.8,79.2,35.6L79.2,35.6z M342.5,191.9
				c-17.3-17.6-25.7-42.1-23.2-66.9l0,0c4.1-40.1,39-72.5,79.6-74l0,0h2.7c8.1,0,16,1.1,23.5,3.3l0,0L382.6,97
				c-4.2,4.2-6.5,9.8-6.5,15.5l0,0c0,5.7,2.4,11.2,6.5,15.3l0,0l27.3,27.6c8.1,8.3,22.4,8.3,30.7,0l0,0l41.2-41.2
				c2,8.4,2.8,17.1,2.2,25.9l0,0c-2.8,40.1-35.1,72.9-75,76.3l0,0c-2.3,0.2-4.7,0.3-7,0.3l0,0C379.7,216.7,358.1,208,342.5,191.9
				L342.5,191.9z M156.5,162c-0.9-1.1-2-1.8-3.5-2l0,0l-52.9-19.1L63.5,77.2L87,53.6l63.6,36.6l19.1,53c0.6,1.1,1.3,2.4,2.2,3.3l0,0
				l99.2,99.3l-15.6,15.5L156.5,162z M268.8,217.3l40.8-40.8c5,10.5,11.4,20.1,19.7,28.5l0,0c8.3,8.5,18,14.9,28.3,19.9l0,0
				l-20.4,19.7v-6.4c0-2.6-1.1-5.1-3.1-6.8l0,0l-8.3-7.4c-4-4.2-9.9-6.8-16-6.8l0,0c-6.4-0.6-11.9,2.2-16.2,6.4l0,0l-9.3,9.2
				L268.8,217.3z M246.9,302.7c-0.7-0.7-1.1-1.8-1.1-3.1l0,0c0-1.5,0.4-2.8,1.1-3.5l0,0l59.9-59.4c0.7-0.7,1.8-1.1,2.9-1.1l0,0
				c1.3-0.4,2.2,0.4,3.5,1.7l0,0l5.7,5v39c0,5.2,4.1,9.2,9.2,9.2l0,0h28.3l116,111.1c7.9,7.9,12.3,18.4,12.3,29.3l0,0
				c0,11.2-4.8,22.1-13.2,30.7l0,0c-17.3,17.3-43,17.7-59.7,0.9l0,0L300.6,346.3V318c0-5.2-4-9.2-9.2-9.2l0,0h-39.1L246.9,302.7z
				 M71.8,464c-13.6-13.6-13.6-35.9,0-49.5l0,0l155.6-155.8l15.3,15.3l-8.8,8.8c-4.2,4.4-6.6,10.5-6.6,16.8l0,0
				c0,6.2,2.4,12.1,6.1,15.6l0,0l7.5,8.8c1.8,2,4.4,3.1,7,3.1l0,0h6.1L121.2,464c-6.8,6.8-15.8,10.1-24.8,10.1l0,0
				C87.5,474.2,78.6,470.8,71.8,464L71.8,464z M339.9,140.4l55.1,55.2l13-13.1L353,127.4L339.9,140.4z M324.5,314.5
				c-3.5,3.7-3.5,9.4,0,13.1l0,0l116.1,116.1c1.9,1.8,4.2,2.8,6.5,2.8l0,0c2.2,0,4.8-1,6.4-2.8l0,0c3.5-3.7,3.5-9.4,0-13.1l0,0
				l-116-116.1c-1.7-1.8-4.1-2.8-6.5-2.8l0,0C328.7,311.7,326.3,312.6,324.5,314.5L324.5,314.5z M89.1,428.4
				c0,10.1,8.3,18.4,18.3,18.4l0,0c10.1,0,18.4-8.3,18.4-18.4l0,0c0-10.1-8.3-18.4-18.4-18.4l0,0C97.4,410,89.1,418.2,89.1,428.4
				L89.1,428.4z"/>
		</g>
	</g>
</g>
</svg>
