<?xml version="1.0" encoding="UTF-8"?>
<svg width="200px" height="200px" viewBox="0 0 200 200" version="1.1" xmlns="http://www.w3.org/2000/svg" xmlns:xlink="http://www.w3.org/1999/xlink">
    <!-- Generator: Sketch 55.2 (78181) - https://sketchapp.com -->
    <title>Instagram</title>
    <desc>Created with Sketch.</desc>
    <g id="Instagram" stroke="none" stroke-width="1" fill="none" fill-rule="evenodd">
        <g transform="translate(13.000000, 13.000000)" fill="#FFFFFF" fill-rule="nonzero" id="Shape">
            <path d="M125.094242,0 L125.094242,0 C131.981128,0 138.431017,1.31939109 144.439709,3.95817326 C150.595467,6.59695544 155.906646,10.151748 160.377449,14.6225509 C164.848252,19.0933538 168.403045,24.4045332 171.041827,30.560291 C173.680609,36.5731848 175,43.0188725 175,49.9057578 L175,125.094242 C175,131.985329 173.680609,138.431017 171.041827,144.439709 C168.403045,150.595467 164.848252,155.910848 160.377449,160.377449 C155.906646,164.848252 150.595467,168.403045 144.439709,171.041827 C138.426815,173.680609 131.981128,175 125.094242,175 L49.9057578,175 C43.0146706,175 36.5689829,173.680609 30.560291,171.041827 C24.4045332,168.403045 19.0891519,164.852454 14.6225509,160.377449 C10.151748,155.906646 6.59695544,150.595467 3.95817326,144.439709 C1.31939109,138.431017 0,131.985329 0,125.094242 L0,49.9057578 C0,43.0188725 1.31939109,36.5689829 3.95817326,30.560291 C6.59695544,24.4045332 10.1475461,19.0933538 14.6225509,14.6225509 C19.0933538,10.151748 24.4045332,6.59695544 30.560291,3.95817326 C36.5689829,1.31939109 43.0146706,0 49.9057578,0 L125.094242,0 Z M87.5,137.624256 C94.3868853,137.624256 100.912409,136.304865 107.068167,133.666082 C113.076858,131.0273 118.354423,127.438893 122.896658,122.892456 C127.438893,118.350221 131.031502,113.076858 133.670284,107.063965 C136.309066,100.908207 137.628458,94.3868853 137.628458,87.4957981 C137.628458,80.6089128 136.309066,74.0833894 133.670284,67.9276316 C131.031502,61.9189397 127.438893,56.6413753 122.896658,52.0991404 C118.350221,47.5569055 113.076858,43.964296 107.068167,41.3255138 C100.912409,38.6867317 94.3910872,37.3673406 87.5,37.3673406 C80.6089128,37.3673406 74.0875912,38.6867317 67.9318335,41.3255138 C61.9189397,43.964296 56.6455772,47.5569055 52.1033423,52.0991404 C47.5569055,56.6455772 43.9684979,61.9189397 41.3297157,67.9276316 C38.6909335,74.0833894 37.3715425,80.6047109 37.3715425,87.4957981 C37.3715425,94.3868853 38.6909335,100.908207 41.3297157,107.063965 C43.9684979,113.076858 47.5569055,118.350221 52.1033423,122.892456 C56.6455772,127.438893 61.9189397,131.0273 67.9318335,133.666082 C74.0875912,136.304865 80.6089128,137.624256 87.5,137.624256 L87.5,137.624256 Z M87.5,49.9057578 C97.9038609,49.9057578 106.769833,53.5697993 114.102118,60.8978823 C121.430201,68.2301671 125.094242,77.0961391 125.094242,87.5 C125.094242,97.9080628 121.430201,106.774035 114.102118,114.102118 C106.769833,121.434403 97.9038609,125.094242 87.5,125.094242 C77.0919372,125.094242 68.2259652,121.434403 60.8978823,114.102118 C53.5655974,106.774035 49.9057578,97.9080628 49.9057578,87.5 C49.9057578,77.0961391 53.5655974,68.2301671 60.8978823,60.8978823 C68.2259652,53.5697993 77.0919372,49.9057578 87.5,49.9057578 L87.5,49.9057578 Z M137.624256,49.9057578 C140.994165,49.9057578 143.889262,48.6956156 146.309547,46.2795332 C148.729831,43.8634508 149.935771,40.8927199 149.935771,37.3757443 C149.935771,34.0058346 148.725629,31.1107376 146.309547,28.6904533 C143.889262,26.270169 140.994165,25.0642288 137.624256,25.0642288 C134.10728,25.0642288 131.140751,26.2743709 128.720467,28.6904533 C126.300182,31.1107376 125.094242,34.0058346 125.094242,37.3757443 C125.094242,40.8927199 126.304384,43.8592489 128.720467,46.2795332 C131.136549,48.6998175 134.10728,49.9057578 137.624256,49.9057578 L137.624256,49.9057578 Z"></path>
        </g>
    </g>
</svg>