<?xml version="1.0" encoding="utf-8"?>
<!-- Generator: Adobe Illustrator 24.0.0, SVG Export Plug-In . SVG Version: 6.00 Build 0)  -->
<svg version="1.1" id="Capa_1" xmlns="http://www.w3.org/2000/svg" xmlns:xlink="http://www.w3.org/1999/xlink" x="0px" y="0px"
	 viewBox="0 0 500 500" style="enable-background:new 0 0 500 500;" xml:space="preserve">
<style type="text/css">
	.st0{fill-rule:evenodd;clip-rule:evenodd;fill:#414042;}
</style>
<title>Clip 182</title>
<g id="Symbols">
	<g id="Group-52" transform="translate(-23.000000, -11.000000)">
		<g id="Clip-182">
			<path id="path-1_1_" class="st0" d="M323,49.8c-16.9-7.7-34.7-7.7-50.8-7.7l0,0c-16.9,0-33.6,2.9-49.7,8.8l0,0
				c-12.3-18.2-31.8-29.1-52.8-29.1l0,0c-36.3,0-67,32.6-67,71.3l0,0c0,27.8,11.3,49.8,31.1,61.7l0,0c-1.2,6.9-1.7,13.8-1.7,20.7
				l0,0c0,25.9,7.8,49.8,21.3,70.3l0,0c-4-1.7-8.1-3.6-12.3-5.8l0,0c-4.4-2.3-9-4.4-13.8-6.5l0,0c-7.3-3.1-14-4.6-20.1-4.6l0,0
				c-22.6,0-43.2,14.9-51,37.4l0,0c-10,28,1.7,58.8,28,72.3l0,0c15.1,7.9,30.7,15.9,53.5,19.4l0,0c-10.4,9.2-24.4,22.2-40.5,39.3
				l0,0c-11.3,11.9-17.1,28.4-15.7,45l0,0c1.2,16.5,9.2,31.6,21.9,41.6l0,0l5,3.9c19.6,15.5,45.3,16.7,63.9,2.7l0,0
				c15.5-11.9,48.1-31.6,90.5-31.6l0,0h20.1c42.6,0,75.1,19.7,90.8,31.6l0,0c9,6.7,19.6,10.2,30.3,10.2l0,0c11.7,0,23.6-4.2,34-12.3
				l0,0l4.8-4.2c12.6-9.9,20.5-25.1,21.9-41.8l0,0c1.3-16.7-4.4-33.1-15.5-45l0,0C433,380.2,419,367,408.6,358l0,0
				c23-3.5,38.8-11.5,54.5-19.7l0,0c18.8-9.6,30.5-29.3,30.3-51.2l0,0c0-7.1-1.2-13.8-3.5-20.1l0,0c-5.2-14.9-16.1-26.9-29.9-33l0,0
				c-13.3-5.8-28-5.9-41.3-0.2l0,0c-4.8,2.1-9.4,4.2-13.8,6.5l0,0c-5.2,2.5-10,4.8-14.8,6.7l0,0c13.8-20.7,22.1-45.2,22.1-71.5l0,0
				c0-6.9-0.6-13.8-1.7-20.7l0,0c19.8-11.9,31.1-34.1,31.1-61.9l0,0c0-39.5-29.7-71.5-66.2-71.5l0,0C353.4,21.4,334.8,31.5,323,49.8
				L323,49.8z M336.1,66.2c7.7-16.5,21.7-25.7,39.5-25.7l0,0c25.9,0,47,23.4,47,52.3l0,0c0,21.7-8.8,38.7-24,46.6l0,0h-0.2
				c-4.8,0.8-8.4,5.6-8.3,10.6l0,0c0,1.2,0.4,2.1,0.8,3.1l0,0c1.5,7.3,2.3,14.9,2.3,22.4l0,0c0,62.9-54.3,114.1-121.1,114.1l0,0
				c-66.8,0-121.1-51.2-121.1-114.1l0,0c0-7.7,1-15.5,2.9-24.3l0,0c0.2-1,0.4-1.7,0.4-2.5l0,0c0.2-5-3.6-8.4-8.3-9.2l0,0
				c-15.2-7.8-24-24.7-24-46.4l0,0c0-28.2,21.9-52.1,47.8-52.1l0,0c16.5,0,31.9,10,40.1,26.2l0,0c2.3,4.4,7.7,6.3,12.3,4.4l0,0
				c16.3-7.1,33.2-10.5,50-10.5l0,0c20,0,35.3,0.8,48.8,9.2l0,0c1.5,1,4.6,1.5,6.3,1.5l0,0C331.1,71.8,334.6,69.7,336.1,66.2
				L336.1,66.2z M120.2,472.8l-5.2-4c-8.4-6.7-13.8-16.9-14.6-28.2l0,0c-0.8-11.5,3.1-22.6,10.5-30.7l0,0
				c32.5-34.3,56.6-52.1,56.8-52.3l0,0c3.4-2.3,4.8-6.7,3.4-10.5l0,0c-1.2-3.8-4.8-6.5-9-6.5l0,0c-32.7,0-49.7-8.8-70.3-19.4l0,0
				c-16.5-8.4-24.4-29.7-17.7-48.5l0,0c5.4-15,18.2-24.7,33-24.7l0,0c3.6,0,7.9,1,12.7,3.1l0,0c4.4,1.7,8.6,3.8,12.6,5.9l0,0
				c11.9,6.1,24.4,12.1,40.9,12.8l0,0c8.3,7.9,17.6,14.6,27.8,20.4l0,0c-5.7,12.4-8.8,26.4-8.8,40.8l0,0c0,49.3,35.7,89.5,79.7,89.5
				l0,0c43.9,0,79.6-40.1,79.6-89.5l0,0c0-14.5-3.1-28.4-8.8-40.8l0,0c10-5.8,19.4-12.5,27.7-20.2l0,0c17.7-0.4,30.5-6.7,43-12.8
				l0,0c4.2-2.1,8.4-4.2,12.9-6.1l0,0c8.4-3.5,17.6-3.5,25.9,0.2l0,0c9.2,4,16.3,11.7,19.8,21.9l0,0c1.5,4.4,2.3,9,2.3,13.8l0,0
				c0,14.8-7.8,28.4-21.5,34.9l0,0c-19.6,10.1-36.6,18.9-69.3,18.9l0,0c-4,0-7.6,2.7-9,6.5l0,0c-1.2,3.8,0.2,8.1,3.4,10.5l0,0
				c0.4,0.2,24.4,18.2,56.8,52.5l0,0c7.7,8.1,11.5,19.2,10.5,30.7l0,0c-0.9,11.3-6.1,21.7-14.9,28.6l0,0l-4.8,4.2
				c-12.3,9.7-28.6,10.3-40.3,1.5l0,0c-17.7-13.2-54.3-35.4-102.3-35.4l0,0H263c-48.2,0-84.8,22.2-102.3,35.4l0,0
				c-5.2,3.8-11.4,5.7-17.8,5.7l0,0C135.1,481,127.1,478.3,120.2,472.8L120.2,472.8z M325.7,298.6c4.6,9.8,6.9,20.9,6.9,32.4l0,0
				c0,38.7-27,70.4-60.4,70.4l0,0c-33.4,0-60.5-31.4-60.5-70.4l0,0c0-11.5,2.3-22.4,6.9-32.4l0,0c16.5,6.5,34.6,10.2,53.6,10.2l0,0
				C291.2,308.7,309.2,305.1,325.7,298.6L325.7,298.6z M351.6,73.5l17.3,8.4c0.8-1.3,4-1.7,6.5-1.7l0,0c5,0,9.6,5,9.6,10.5l0,0h19.2
				c0-16.1-13.2-29.7-28.7-29.7l0,0C363.7,61.1,355.6,65.3,351.6,73.5L351.6,73.5z M139.7,91H159c0-5.2,5.4-10.4,10.4-10.4l0,0
				c3.2,0,6.1,1.9,7.9,5l0,0l17.1-8.8c-5-9.4-14.4-15.3-24.8-15.3l0,0C153.8,61.5,139.7,75.3,139.7,91L139.7,91z M301.9,136.4
				c0,10.5,8.7,19.2,19.2,19.2l0,0c10.6,0,19.2-8.6,19.2-19.2l0,0c0-10.5-8.6-19.1-19.2-19.1l0,0
				C310.6,117.3,301.9,125.9,301.9,136.4L301.9,136.4z M206,136.4c0,10.5,8.6,19.2,19.2,19.2l0,0c10.6,0,19.2-8.6,19.2-19.2l0,0
				c0-10.5-8.6-19.1-19.2-19.1l0,0C214.6,117.3,206,125.9,206,136.4L206,136.4z M244.4,174.9v9.6c0,12.5,8,23,19.2,27l0,0
				c-0.2,11.1-9.8,20.9-21.1,20.9l0,0c-10.7,0-20-8.8-20.5-20.9l0,0h-19.2v2.1c1.1,21.1,18.6,37.8,39.9,37.8l0,0
				c12.1,0,22.8-5.8,30.3-14.6l0,0c7.1,8.6,17.4,14.4,29.3,14.6l0,0h0.2h0.2h0.2c20.7-0.2,37.8-16.9,39-37.8l0,0v-2.1l-19.2,1.2
				c-0.6,10.9-9.4,19.6-20.1,19.7l0,0c-10.9,0-19.6-9.4-19.8-20.9l0,0c11.2-4,19.2-14.6,19.2-27l0,0v-9.6H244.4z"/>
		</g>
	</g>
</g>
</svg>
