<?xml version="1.0" encoding="utf-8"?>
<!-- Generator: Adobe Illustrator 24.0.0, SVG Export Plug-In . SVG Version: 6.00 Build 0)  -->
<svg version="1.1" id="Capa_1" xmlns="http://www.w3.org/2000/svg" xmlns:xlink="http://www.w3.org/1999/xlink" x="0px" y="0px"
	 viewBox="0 0 500 500" style="enable-background:new 0 0 500 500;" xml:space="preserve">
<style type="text/css">
	.st0{fill-rule:evenodd;clip-rule:evenodd;fill:#1D1D1B;}
</style>
<title>Clip 125</title>
<g id="Symbols">
	<g id="Group-22" transform="translate(-24.000000, -13.000000)">
		<g id="Clip-125">
			<path id="path-1_1_" class="st0" d="M75.8,28.9c-13.4,0-24.2,10.9-24.2,24.4l0,0v419.4c0,13.4,10.8,24.4,24.2,24.4l0,0h396.4
				c13.4,0,24.2-10.9,24.2-24.4l0,0V53.3c0-13.5-10.8-24.4-24.2-24.4l0,0H75.8z M71,53.3c0-2.7,2.1-4.9,4.8-4.9l0,0h396.4
				c2.7,0,4.8,2.2,4.8,4.9l0,0v73.1H71V53.3z M71,472.7V146h406.1v326.8c0,2.7-2.1,4.9-4.8,4.9l0,0H75.8
				C73.1,477.6,71,475.5,71,472.7L71,472.7z M419,87.4c0,10.7,8.7,19.5,19.3,19.5l0,0c10.6,0,19.3-8.8,19.3-19.5l0,0
				c0-10.7-8.7-19.5-19.3-19.5l0,0C427.8,67.9,419,76.7,419,87.4L419,87.4z M361.1,87.4c0,10.7,8.7,19.5,19.3,19.5l0,0
				c10.6,0,19.4-8.8,19.4-19.5l0,0c0-10.7-8.7-19.5-19.4-19.5l0,0C369.7,67.9,361.1,76.7,361.1,87.4L361.1,87.4z M148.5,311.8
				c0,69.8,56.3,126.6,125.5,126.6l0,0c69.2,0,125.5-56.8,125.5-126.6l0,0c0-69.9-56.3-126.6-125.5-126.6l0,0
				C204.8,185.2,148.5,241.9,148.5,311.8L148.5,311.8z M274,204.7c56.9,0,103.3,45.3,106,102l0,0c-48.9,41.9-71.6,22.4-100-2.1l0,0
				c-25.9-22.4-57.4-49.6-109.8-15l0,0C180.4,241.2,223,204.7,274,204.7L274,204.7z M168,315.3c48.3-40,71-20.5,99.4,4.1l0,0
				c16.8,14.6,36.1,31.4,62.1,31.4l0,0c14.1,0,30.1-5.1,48.7-17.9l0,0c-9.9,49-52.8,86-104.2,86l0,0
				C216.6,418.9,169.8,372.7,168,315.3L168,315.3z"/>
		</g>
	</g>
</g>
</svg>
