<svg xmlns="http://www.w3.org/2000/svg" width="25" height="30" viewBox="0 0 25 30">
    <path fill="#FFF" d="M12.5 30l-3.516-3.454-1.477-1.491c-.348-.354-.68-.694-.995-1.02l-.9-.932c-.473-.495-.901-.95-1.285-1.366l-.643-.704c-.394-.44-.722-.82-.982-1.14-.868-1.066-1.536-2.26-2.002-3.582-.467-1.322-.7-2.665-.7-4.03 0-1.705.326-3.304.977-4.797.65-1.493 1.546-2.793 2.685-3.902C4.802 2.473 6.131 1.6 7.65.96 9.169.32 10.786 0 12.5 0c1.714 0 3.331.32 4.85.96 1.52.64 2.849 1.513 3.988 2.622 1.14 1.109 2.034 2.41 2.685 3.902.651 1.493.977 3.092.977 4.797 0 1.386-.228 2.73-.684 4.03-.455 1.3-1.128 2.495-2.018 3.582l-.283.34c-.203.24-.436.507-.7.8l-.417.46c-.512.56-1.112 1.196-1.8 1.911l-.93.962c-.654.67-1.371 1.396-2.152 2.18L12.5 30zM3.125 12.37c0 1.065.172 2.088.517 3.07.345.982.852 1.89 1.521 2.726.355.46.857 1.045 1.505 1.755l.773.842c.264.286.535.577.812.873l.422.447c.71.752 1.41 1.483 2.1 2.194L12.5 26l1.724-1.723c.46-.474.925-.957 1.394-1.449l.707-.745c.711-.752 1.38-1.473 2.007-2.162l.41-.455c.454-.51.819-.942 1.095-1.3.669-.835 1.176-1.744 1.52-2.726.346-.982.518-2.005.518-3.07 0-1.296-.25-2.508-.753-3.636-.48-1.149-1.144-2.146-1.99-2.992-.847-.846-1.845-1.51-2.995-1.99C15.008 3.251 13.796 3 12.5 3c-1.296 0-2.508.25-3.637.752-1.15.48-2.148 1.144-2.994 1.99-.847.846-1.51 1.843-1.991 2.992-.502 1.128-.753 2.34-.753 3.635zm12.5-.352c0 .818-.306 1.52-.92 2.105-.612.585-1.347.877-2.205.877-.858 0-1.593-.292-2.206-.877s-.919-1.287-.919-2.105c0-.843.306-1.556.92-2.14C10.906 9.291 11.641 9 12.5 9c.858 0 1.593.292 2.206.877s.919 1.298.919 2.14z"/>
</svg>
