<?xml version="1.0" encoding="utf-8"?>
<!-- Generator: Adobe Illustrator 24.0.0, SVG Export Plug-In . SVG Version: 6.00 Build 0)  -->
<svg version="1.1" id="Capa_1" xmlns="http://www.w3.org/2000/svg" xmlns:xlink="http://www.w3.org/1999/xlink" x="0px" y="0px"
	 viewBox="0 0 500 500" style="enable-background:new 0 0 500 500;" xml:space="preserve">
<style type="text/css">
	.st0{fill-rule:evenodd;clip-rule:evenodd;fill:#414042;}
</style>
<title>Clip 350</title>
<g id="Symbols">
	<g id="Group-25" transform="translate(-22.000000, -13.000000)">
		<g id="Clip-350">
			<path id="path-1_1_" class="st0" d="M154.2,61.9c-26.1,0-46.4,20.9-46.4,47.7l0,0v87.3c-3.1-0.4-6.4-1-9.7-1l0,0
				C61,196,30.7,226,30.7,263l0,0c0,26.6,15.8,49.4,38.6,60.4l0,0v54.6c0,24.1,16.4,43.5,38.6,47.1l0,0v39.1h19.3v-38.3h289.6v38.3
				h19.3v-39.9c21.8-5.2,38.6-24.3,38.6-46.3l0,0v-54.8c22.8-10.7,38.6-33.5,38.6-60.1l0,0c0-37-30.3-67-67.6-67l0,0
				c-3.3,0-6.4,0.6-9.7,1l0,0v-87.3c0-25.9-23-47.7-50.2-47.7l0,0H154.2z M166,263c0-26.6-15.8-49.4-38.6-60.4l0,0v-93
				c0-16.3,11.6-28.6,27-28.6l0,0h231.7c16.4,0,30.9,13.4,30.9,28.6l0,0v93c-22.8,10.7-38.6,33.7-38.6,60.4l0,0v47.9H166V263z
				 M388,330c5.4,0,9.7-4.2,9.7-9.6l0,0V263c0-26.4,21.7-47.9,48.3-47.9l0,0c26.6,0,48.3,21.5,48.3,47.9l0,0
				c0,26.4-21.8,47.9-48.7,47.9l0,0h-9.3V330h9.3c3.5,0,6.8-0.6,10-1l0,0v48.8c0,15.3-14.5,28.7-30.9,28.7l0,0H115.8
				c-15.5,0-27-12.2-27-28.7l0,0v-48.8c3.1,0.4,6.4,1,9.7,1l0,0h9.7v-19.2h-9.7c-26.6,0-48.3-21.5-48.3-47.9l0,0
				c0-26.4,21.7-47.9,48.3-47.9l0,0c26.6,0,48.3,21.5,48.3,47.9l0,0v57.5c0,5.4,4.2,9.6,9.7,9.6l0,0H388z"/>
		</g>
	</g>
</g>
</svg>
