<?xml version="1.0" encoding="utf-8"?>
<!-- Generator: Adobe Illustrator 24.0.0, SVG Export Plug-In . SVG Version: 6.00 Build 0)  -->
<svg version="1.1" id="Capa_1" xmlns="http://www.w3.org/2000/svg" xmlns:xlink="http://www.w3.org/1999/xlink" x="0px" y="0px"
	 viewBox="0 0 500 500" style="enable-background:new 0 0 500 500;" xml:space="preserve">
<style type="text/css">
	.st0{fill-rule:evenodd;clip-rule:evenodd;fill:#414042;}
</style>
<title>Clip 281</title>
<g id="Page-1">
	<g id="Artboard-Copy-8" transform="translate(-511.000000, -119.000000)">
		<g id="Group-418" transform="translate(56.000000, 42.000000)">
			<g id="Group-117" transform="translate(455.000000, 77.000000)">
				<g id="Clip-116">
					<path id="path-1_2_" class="st0" d="M114.6,16.6c-12.9,0-23.3,10.5-23.3,23.4l0,0v420.2c0,12.9,10.5,23.3,23.3,23.3l0,0h270.8
						c12.9,0,23.3-10.5,23.3-23.3l0,0V39.9c0-12.9-10.4-23.4-23.3-23.4l0,0H114.6z M109.9,39.9c0-2.6,2.1-4.7,4.7-4.7l0,0h270.8
						c2.6,0,4.7,2.1,4.7,4.7l0,0v144.7H109.9V39.9z M110.1,404.1V203.3h280.1v200.8h-0.2c0,2.6-2.2,4.7-4.7,4.7l0,0H114.8
						C112.2,408.7,110.1,406.7,110.1,404.1L110.1,404.1z M385.2,427.4c1.7,0,3.2-0.6,4.7-0.9l0,0v33.6c0.1,2.6-1.9,4.7-4.5,4.7l0,0
						H114.6c-2.6,0-4.7-2-4.7-4.7l0,0v-33.6c1.5,0.3,3,0.9,4.7,0.9l0,0H385.2z M128.6,147.3h18.7V72.6h-18.7V147.3z M128.6,315.4
						h18.7v-74.7h-18.7V315.4z"/>
				</g>
			</g>
		</g>
	</g>
</g>
</svg>
