<?xml version="1.0" encoding="UTF-8"?>
<svg width="23px" height="21px" viewBox="0 0 23 21" version="1.1" xmlns="http://www.w3.org/2000/svg" xmlns:xlink="http://www.w3.org/1999/xlink">
    <title>Group</title>
    <g id="-Home_Jul2020-//alternativa-realista-desarrollo" stroke="none" stroke-width="1" fill="none" fill-rule="evenodd">
        <g id="HOME---CYBER" transform="translate(-1274.000000, -49.000000)" fill="#FFFFFF" fill-rule="nonzero">
            <g id="Group-5" transform="translate(1261.000000, 38.000000)">
                <g id="Group" transform="translate(13.000000, 11.000000)">
                    <path d="M0.746889303,0.0899981538 C0.336565217,0.0899981538 0.00395227679,0.423713241 0.00395227679,0.835368873 C0.00395227679,1.24702451 0.336565217,1.58073924 0.746889303,1.58073924 L3.61029269,1.58073924 L6.16413897,13.6696951 C6.26517841,14.1247685 6.56245231,14.503516 6.93803178,14.5005468 L19.3203168,14.5005468 C19.7128105,14.5059509 20.0738284,14.1489434 20.0738284,13.7551145 C20.0738284,13.3612856 19.7128105,13.0041787 19.3203168,13.0097441 L7.54166817,13.0097441 L7.22435974,11.5190034 L20.3108996,11.5190034 C20.6435373,11.5165188 20.9578244,11.2623227 21.0306075,10.9366952 L22.7641264,3.48298654 C22.860733,3.05040588 22.4862689,2.57774417 22.0444195,2.5745664 L5.34381259,2.5745664 L4.94138832,0.68008338 C4.87108171,0.34911409 4.55122252,0.0896506636 4.21392908,0.0899981538 L0.746889303,0.0899981538 Z M5.65336971,4.06530715 L9.52283377,4.06530715 L9.89430232,6.30141826 L6.12545671,6.30141826 L5.65336971,4.06530715 Z M11.0396637,4.06530715 L15.7139763,4.06530715 L15.3425077,6.30141826 L11.4111322,6.30141826 L11.0396637,4.06530715 Z M17.2308062,4.06530715 L21.1080216,4.06530715 L20.589501,6.30141826 L16.8593376,6.30141826 L17.2308062,4.06530715 Z M6.44274038,7.792159 L10.141948,7.792159 L10.5134166,10.0282627 L6.91480261,10.0282627 L6.44274038,7.792159 Z M11.6587779,7.792159 L15.094862,7.792159 L14.7233935,10.0282627 L12.0302465,10.0282627 L11.6587779,7.792159 Z M16.6116919,7.792159 L20.2412616,7.792159 L19.722741,10.0282627 L16.2402234,10.0282627 L16.6116919,7.792159 Z M9.66213448,15.4942872 C8.30322823,15.4942872 7.18567748,16.6154733 7.18567748,17.9788551 C7.18567748,19.342212 8.30322823,20.463423 9.66213448,20.463423 C11.0210407,20.463423 12.1385915,19.342212 12.1385915,17.9788551 C12.1385915,16.6154981 11.0210407,15.4942872 9.66213448,15.4942872 L9.66213448,15.4942872 Z M16.5962141,15.4942872 C15.2373078,15.4942872 14.1197571,16.6154733 14.1197571,17.9788551 C14.1197571,19.342212 15.2373078,20.463423 16.5962141,20.463423 C17.9551203,20.463423 19.0726711,19.342212 19.0726711,17.9788551 C19.0726711,16.6154981 17.9551203,15.4942872 16.5962141,15.4942872 L16.5962141,15.4942872 Z M9.66213448,16.9850279 C10.2180248,16.9850279 10.6527173,17.4211441 10.6527173,17.9788551 C10.6527173,18.5365412 10.2180248,18.9726823 9.66213448,18.9726823 C9.10629371,18.9726823 8.67155168,18.5365412 8.67155168,17.9788551 C8.67155168,17.4211441 9.10629371,16.9850279 9.66213448,16.9850279 Z M16.5962141,16.9850279 C17.1521044,16.9850279 17.5867969,17.4211441 17.5867969,17.9788551 C17.5867969,18.5365412 17.1521044,18.9726823 16.5962141,18.9726823 C16.0403733,18.9726823 15.6056313,18.5365412 15.6056313,17.9788551 C15.6056313,17.4211441 16.0403733,16.9850279 16.5962141,16.9850279 Z" id="Shape"></path>
                </g>
            </g>
        </g>
    </g>
</svg>