<?xml version="1.0" encoding="utf-8"?>
<!-- Generator: Adobe Illustrator 24.0.0, SVG Export Plug-In . SVG Version: 6.00 Build 0)  -->
<svg version="1.1" id="Capa_1" xmlns="http://www.w3.org/2000/svg" xmlns:xlink="http://www.w3.org/1999/xlink" x="0px" y="0px"
	 viewBox="0 0 500 500" style="enable-background:new 0 0 500 500;" xml:space="preserve">
<style type="text/css">
	.st0{fill:#414042;}
</style>
<title>noun_gamepad ps4_2507548 copy</title>
<g id="Symbols">
	<g id="btn_tecno_desktop" transform="translate(-22.000000, -14.000000)">
		<g id="noun_gamepad-ps4_2507548-copy" transform="translate(22.000000, 14.000000)">
			<path id="Shape" class="st0" d="M174.8,227.4c-19.2,0-35.3,16-35.3,35.3c0,19.2,16,35.3,35.3,35.3s35.3-16,35.3-35.3
				C210.1,243.4,194,227.4,174.8,227.4z M174.8,281.9c-10.4,0-19.2-8.8-19.2-19.2c0-10.4,8.8-19.2,19.2-19.2
				c10.4,0,19.2,8.8,19.2,19.2C194,273.1,185.2,281.9,174.8,281.9z"/>
			<path id="Shape_1_" class="st0" d="M492.2,322.7l-4-36.9c-1.6-14.4-24.8-121.8-36.9-137.9l-17.6-27.3c-0.8-0.8-1.6-1.6-2.4-2.4
				v-3.2c0-1.6-0.8-3.2-1.6-4.8c-0.8-0.8-13.6-19.2-34.5-21.6c-12-1.6-24,3.2-36.1,13.6c-1.6,1.6-2.4,4-2.4,5.6v8
				c-1.6,0.8-2.4,1.6-3.2,2.4c-0.8,0.8-4,1.6-10.4,0.8h-0.8H158h-0.8c-6.4,0.8-9.6,0-10.4-0.8c-0.8-0.8-1.6-1.6-3.2-2.4v-8
				c0-2.4-0.8-4.8-2.4-5.6c-11.2-10.4-23.2-15.2-36.1-13.6c-20.8,2.4-34.5,20.8-34.5,21.6c-0.8,1.6-1.6,3.2-1.6,4.8v3.2
				c-0.8,0.8-1.6,1.6-2.4,2.4L49,148c-12,16-35.3,123.4-36.9,137.9l-4,36.9c-3.2,33.7,3.2,58.5,18.4,73.7
				c10.4,10.4,22.4,12.8,25.7,13.6c33.7,8,57.7-19.2,65.7-36.1l25.7-64.1c8.8,6.4,20,9.6,31.3,9.6c12.8,0,25.7-4.8,36.1-12.8h79.4
				c10.4,8,22.4,12.8,36.1,12.8c11.2,0,21.6-3.2,31.3-9.6l25.7,64.1c7.2,13.6,25.7,36.9,52.9,36.9c4,0,8-0.8,12-1.6
				c3.2,0,14.4-2.4,25.7-13.6C488.2,380.5,494.6,356.4,492.2,322.7z M372.8,111.9c7.2-5.6,13.6-8,20-7.2c7.2,0.8,13.6,4.8,17.6,8.8
				c-9.6-0.8-22.4-1.6-38.5,0v-1.6H372.8z M182.8,135.2h134.7v62.5c0,4-4,8-8,8H190.8c-4,0-8-4-8-8V135.2z M107.5,103.9
				c6.4-0.8,13.6,1.6,20,7.2v1.6c-16-1.6-28.9-0.8-38.5,0C93.8,109.5,99.5,104.7,107.5,103.9z M445.7,394.1c-0.8,0-0.8,0-1.6,0
				c-29.7,8-46.5-25.7-47.3-26.5l-27.3-68.1c-0.8-1.6-1.6-3.2-4-4l-5.6-3.2c-1.6-0.8-2.4-0.8-4-0.8s-4,0.8-5.6,1.6
				c-7.2,6.4-16.8,9.6-26.5,9.6c-10.4,0-20-4-27.3-10.4c-1.6-1.6-3.2-2.4-5.6-2.4h-83.4c-1.6,0-4,0.8-5.6,2.4
				c-7.2,6.4-16.8,10.4-27.3,10.4c-9.6,0-19.2-3.2-26.5-9.6c-2.4-2.4-6.4-2.4-8.8-0.8l-5.6,3.2c-1.6,0.8-3.2,2.4-4,4l-27.3,68.1
				c-0.8,1.6-17.6,34.5-47.3,26.5h-0.8c-1.6,0-36.1-4.8-30.5-69.7l3.2-36.9c1.6-20.8,26.5-120.2,33.7-129.9c0,0,0,0,0.8-0.8l16-24.8
				c6.4-1.6,27.3-5.6,57.7-1.6c3.2,3.2,10.4,6.4,22.4,4.8h8v62.5c0,12.8,11.2,24,24,24h118.6c13.6,0,24-11.2,24-24v-62.5h8
				c12,1.6,18.4-1.6,22.4-4.8c30.5-4,50.5,0,57.7,1.6l16,24.8c0,0,0,0.8,0.8,0.8c7.2,9.6,32.1,109,33.7,129.9l4,36.9
				C481.8,389.3,447.3,394.1,445.7,394.1z"/>
			<path id="Shape_2_" class="st0" d="M325.5,227.4c-19.2,0-35.3,16-35.3,35.3c0,19.2,16,35.3,35.3,35.3c19.2,0,35.3-16,35.3-35.3
				C360.8,243.4,344.7,227.4,325.5,227.4z M325.5,281.9c-10.4,0-19.2-8.8-19.2-19.2c0-10.4,8.8-19.2,19.2-19.2s19.2,8.8,19.2,19.2
				C344.7,273.1,335.9,281.9,325.5,281.9z"/>
			<circle id="Oval" class="st0" cx="362.4" cy="197.7" r="19.9"/>
			<circle id="Oval_1_" class="st0" cx="431.3" cy="197.7" r="19.9"/>
			<circle id="Oval_2_" class="st0" cx="395.2" cy="233.8" r="19.9"/>
			<circle id="Oval_3_" class="st0" cx="395.2" cy="164" r="19.9"/>
			<path id="Path" class="st0" d="M89,178.5l8.8,8c1.6,1.6,3.2,2.4,5.6,2.4c2.4,0,4-0.8,5.6-2.4l8.8-8.8c1.6-1.6,2.4-3.2,2.4-4.8
				l1.6-12c0-2.4-0.8-4.8-2.4-6.4c-11.2-11.2-24.8-6.4-31.3,0c-1.6,1.6-2.4,4-2.4,6.4l1.6,12C86.6,175.3,87.4,176.9,89,178.5z"/>
			<path id="Path_1_" class="st0" d="M117.1,219.3l-8.8-8c-3.2-3.2-8-2.4-11.2,0l-8.8,8.8c-1.6,1.6-2.4,3.2-2.4,4.8l-1.6,12
				c0,2.4,0.8,4.8,2.4,6.4c4.8,4.8,10.4,6.4,15.2,6.4c6.4,0,12.8-3.2,16-6.4c1.6-1.6,2.4-4,2.4-6.4l-1.6-12
				C119.5,222.6,118.7,220.1,117.1,219.3z"/>
			<path id="Path_2_" class="st0" d="M141.9,216.9c2.4,0,4-0.8,5.6-2.4c11.2-11.2,6.4-24.8,0-31.3c-1.6-1.6-4-2.4-6.4-2.4l-12,1.6
				c-1.6,0-4,0.8-4.8,2.4l-8,8.8c-3.2,3.2-2.4,8,0,11.2l8.8,8.8c1.6,1.6,3.2,2.4,4.8,2.4l12,1.6
				C141.1,216.9,141.9,216.9,141.9,216.9z"/>
			<path id="Path_3_" class="st0" d="M91.4,193.7l-8-8.8c-1.6-1.6-3.2-2.4-4.8-2.4l-12.8-1.6c-2.4,0-4.8,0.8-6.4,2.4
				c-6.4,6.4-11.2,20,0,31.3c1.6,1.6,3.2,2.4,5.6,2.4h0.8l11.2-1.6c1.6,0,3.2-0.8,4.8-2.4l8.8-8.8C93.8,201.7,93.8,196.9,91.4,193.7
				z"/>
			<path id="Path_4_" class="st0" d="M278.2,262.6h-32.1c-4,0-8,4-8,8c0,4,4,8,8,8h32.1c4,0,8-4,8-8
				C286.2,266.6,283,262.6,278.2,262.6z"/>
			<path id="Path_5_" class="st0" d="M225.3,260.2c-5.6,0-10.4,4.8-10.4,10.4c0,5.6,4.8,10.4,10.4,10.4s10.4-4.8,10.4-10.4
				C234.9,265,230.9,260.2,225.3,260.2z"/>
		</g>
	</g>
</g>
</svg>
