<?xml version="1.0" encoding="utf-8"?>
<!-- Generator: Adobe Illustrator 24.0.0, SVG Export Plug-In . SVG Version: 6.00 Build 0)  -->
<svg version="1.1" id="Capa_1" xmlns="http://www.w3.org/2000/svg" xmlns:xlink="http://www.w3.org/1999/xlink" x="0px" y="0px"
	 viewBox="0 0 500 500" style="enable-background:new 0 0 500 500;" xml:space="preserve">
<style type="text/css">
	.st0{fill-rule:evenodd;clip-rule:evenodd;fill:#414042;}
</style>
<title>Clip 287</title>
<g id="Symbols">
	<g id="Group-18" transform="translate(-27.000000, -12.000000)">
		<g id="Clip-287">
			<path id="path-1_1_" class="st0" d="M159.2,22.9c-13,0-23.5,10.7-23.5,23.9l0,0v430.4c0,13.2,10.5,23.9,23.5,23.9l0,0h235.5
				c13,0,23.5-10.7,23.5-23.9l0,0V46.8c0-13.2-10.5-23.9-23.5-23.9l0,0H159.2z M154.5,46.8c0-2.7,2.1-4.8,4.7-4.8l0,0h235.5
				c2.6,0,4.7,2.1,4.7,4.8l0,0v52.6H154.5V46.8z M154.5,386.4h244.9V118.6H154.5V386.4z M154.5,477.2v-71.7h244.9v71.7
				c0,2.7-2.1,4.8-4.7,4.8l0,0H159.2C156.6,482,154.5,479.9,154.5,477.2L154.5,477.2z M229.9,80.3h94.2V61.1h-94.2V80.3z
				 M258.2,443.7c0,10.5,8.5,19.1,18.8,19.1l0,0c10.4,0,18.8-8.6,18.8-19.1l0,0c0-10.5-8.5-19.1-18.8-19.1l0,0
				C266.6,424.6,258.2,433.2,258.2,443.7L258.2,443.7z"/>
		</g>
	</g>
</g>
</svg>
