<?xml version="1.0" encoding="utf-8"?>
<!-- Generator: Adobe Illustrator 24.0.0, SVG Export Plug-In . SVG Version: 6.00 Build 0)  -->
<svg version="1.1" id="Capa_1" xmlns="http://www.w3.org/2000/svg" xmlns:xlink="http://www.w3.org/1999/xlink" x="0px" y="0px"
	 viewBox="0 0 500 500" style="enable-background:new 0 0 500 500;" xml:space="preserve">
<style type="text/css">
	.st0{fill-rule:evenodd;clip-rule:evenodd;fill:#414042;}
</style>
<title>Clip 281</title>
<g id="Page-1_1_">
	<g id="Artboard-Copy-3" transform="translate(-456.000000, -105.000000)">
		<g id="Group-301" transform="translate(56.000000, 76.000000)">
			<g id="Group-27" transform="translate(400.000000, 29.000000)">
				<g id="Clip-26">
					<path id="path-1_1_" class="st0" d="M32.7,57.9C19.3,57.9,8.5,68.7,8.5,82l0,0v299.5c0,13.3,10.8,24.1,24.1,24.1l0,0h130.4v58
						H66.5v19.3h367v-19.3h-96.6v-58h130.4c13.3,0,24.1-10.8,24.1-24.1l0,0V82c0-13.3-10.8-24.1-24.1-24.1l0,0H32.7z M27.9,381.5V82
						c0-2.7,2.1-4.8,4.8-4.8l0,0h434.7c2.7,0,4.8,2.1,4.8,4.8l0,0v299.5c0,2.7-2.1,4.8-4.8,4.8l0,0H336.9H32.7
						C30,386.3,27.9,384.2,27.9,381.5L27.9,381.5z M182.4,463.6h135.2v-58H182.4V463.6z M56.8,96.5c-5.4,0-9.7,4.2-9.7,9.7l0,0
						v251.1c0,5.4,4.3,9.7,9.7,9.7l0,0h386.4c5.4,0,9.7-4.2,9.7-9.7l0,0V106.2c0-5.4-4.2-9.7-9.7-9.7l0,0H56.8z M66.5,347.7h367
						V115.8h-367V347.7z"/>
				</g>
			</g>
		</g>
	</g>
</g>
</svg>
