<?xml version="1.0" encoding="UTF-8"?>
<svg width="200px" height="200px" viewBox="0 0 200 200" version="1.1" xmlns="http://www.w3.org/2000/svg" xmlns:xlink="http://www.w3.org/1999/xlink">
    <!-- Generator: Sketch 55.2 (78181) - https://sketchapp.com -->
    <title>Twitter</title>
    <desc>Created with Sketch.</desc>
    <g id="Twitter" stroke="none" stroke-width="1" fill="none" fill-rule="evenodd">
        <g transform="translate(0.000000, 20.000000)" fill="#FFFFFF" fill-rule="nonzero" id="Path">
            <path d="M199.936,19.22 L199.704,19.452 C197.052,23.348 194.052,27.012 190.704,30.44 C187.352,33.868 183.652,37.064 179.6,40.024 L179.6,39.792 C179.6,40.572 179.6,41.392 179.6,42.248 C179.6,43.108 179.6,44 179.6,44.936 L179.6,45.168 C179.6,58.416 177.104,71.9 172.12,85.612 C166.976,99.172 159.496,111.444 149.68,122.432 C139.86,133.42 127.704,142.42 113.212,149.432 C98.72,156.292 82.04,159.716 63.184,159.716 L62.952,159.716 C51.416,159.716 40.352,158.12 29.756,154.924 C19.156,151.732 9.416,147.328 0.536,141.716 L0.064,141.716 C1.776,141.872 3.452,141.988 5.092,142.068 C6.728,142.148 8.4,142.184 10.12,142.184 L10.352,142.184 C20.012,142.184 29.172,140.664 37.82,137.624 C46.468,134.584 54.22,130.416 61.08,125.116 C52.196,124.964 44.284,122.276 37.352,117.052 C30.416,111.832 25.548,105.168 22.74,97.064 L22.508,97.064 C23.912,97.22 25.272,97.38 26.6,97.532 C27.924,97.688 29.208,97.764 30.456,97.764 C32.48,97.764 34.388,97.648 36.184,97.412 C37.972,97.18 39.728,96.828 41.444,96.36 C31.936,94.488 24.064,89.896 17.832,82.568 C11.596,75.244 8.48,66.672 8.48,56.852 L8.48,56.384 L8.248,56.152 C11.052,57.712 14.012,58.956 17.132,59.892 C20.248,60.828 23.52,61.296 26.952,61.296 C21.496,57.712 17.092,52.996 13.744,47.152 C10.392,41.308 8.716,34.88 8.716,27.864 C8.716,24.124 9.22,20.54 10.236,17.112 C11.248,13.684 12.612,10.488 14.328,7.528 L14.56,7.76 C19.544,13.84 25.156,19.372 31.392,24.356 C37.624,29.344 44.328,33.632 51.496,37.212 C58.664,40.8 66.224,43.68 74.172,45.86 C81.964,48.044 90.144,49.288 98.716,49.6 C98.4,48.196 98.132,46.72 97.896,45.16 C97.664,43.604 97.544,42.044 97.544,40.484 C97.544,29.42 101.556,19.952 109.584,12.08 C117.608,4.212 127.312,0.276 138.688,0.276 C144.608,0.276 150.104,1.408 155.168,3.664 C160.232,5.924 164.636,9.004 168.376,12.896 C173.052,11.96 177.568,10.676 181.936,9.04 C186.296,7.404 190.504,5.416 194.56,3.08 L194.328,3.548 C192.768,8.072 190.472,12.236 187.432,16.056 C184.392,19.876 180.768,23.032 176.56,25.524 L176.792,25.292 C181,24.824 185.052,24.048 188.948,22.956 C192.844,21.872 196.508,20.624 199.936,19.22 L199.936,19.22 Z"></path>
        </g>
    </g>
</svg>