<?xml version="1.0" encoding="UTF-8"?>
<svg width="200px" height="200px" viewBox="0 0 200 200" version="1.1" xmlns="http://www.w3.org/2000/svg" xmlns:xlink="http://www.w3.org/1999/xlink">
    <!-- Generator: Sketch 55.2 (78181) - https://sketchapp.com -->
    <title>Youtube</title>
    <desc>Created with Sketch.</desc>
    <g id="Youtube" stroke="none" stroke-width="1" fill="none" fill-rule="evenodd">
        <g id="YouTube" transform="translate(6.000000, 29.789916)" fill="#FFFFFF" fill-rule="nonzero">
            <path d="M186.13924,30.3895835 C187.379747,43.8040052 188,54.5441945 188,62.6180168 L188,77.8060839 C188,85.8838389 187.379747,96.6240282 186.13924,110.034517 C183.934772,120.165139 181.453758,126.732739 178.700149,129.741251 C175.116902,133.713272 171.537605,136.037495 167.958308,136.721784 C164.37506,137.410005 161.688612,137.885861 159.902915,138.157217 C153.293463,138.703862 146.126967,139.116795 138.415281,139.388151 C130.699645,139.663439 123.572656,139.86794 117.034316,140.005584 C110.492025,140.143228 105.016412,140.210084 100.611427,140.210084 L93.9980247,140.210084 L86.1480656,140.210084 C80.9134427,140.076372 74.750415,139.938728 67.6589825,139.801084 C60.5635993,139.667372 53.5077227,139.462872 46.4834514,139.183651 C39.320907,138.912295 33.8808498,138.637006 30.1632799,138.361718 C27.9588123,137.952717 24.8259399,137.406073 20.7646626,136.717851 C16.6994347,136.033562 12.8791477,133.70934 9.2998508,129.737318 C6.54229096,126.728806 4.0652279,120.161206 1.86076029,110.030585 C0.620253431,96.6200956 0,85.8799062 0,77.8021512 L0,62.6140841 C0,54.5402618 0.620253431,43.8000725 1.86076029,30.3856508 C4.06127724,20.2589618 6.54229096,13.6913616 9.2998508,10.6789174 C12.8791477,6.71082844 16.4584445,4.35121159 20.0416921,3.5961342 C23.6209889,2.84498951 26.3074369,2.400595 28.0970853,2.26295069 C34.7065375,1.71630612 41.8690819,1.30730587 49.5847185,1.03201723 C57.2964045,0.760661297 64.4233929,0.552228476 70.9656839,0.41458416 C77.5040242,0.280872539 82.9796373,0.210084034 87.3885725,0.210084034 L93.9980247,0.210084034 L100.607477,0.210084034 C105.012461,0.210084034 110.488074,0.280872539 117.030365,0.41458416 C123.568706,0.552228476 130.699645,0.756728602 138.411331,1.03201723 C146.123017,1.30730587 153.285561,1.72023881 159.898964,2.26295069 C161.688612,2.400595 164.37111,2.84498951 167.954357,3.5961342 C171.533654,4.35121159 175.112951,6.71082844 178.696199,10.6789174 C181.457709,13.6952943 183.934772,20.2628945 186.13924,30.3895835 L186.13924,30.3895835 Z M74.576586,96.0773837 L125.397861,68.1591837 L74.576586,40.0364837 L74.576586,96.0773837 Z" id="Shape"></path>
        </g>
    </g>
</svg>